<mxfile host="app.diagrams.net" agent="Mozilla/5.0 (X11; Linux x86_64; rv:144.0) Gecko/20100101 Firefox/144.0" version="28.2.8">
  <diagram name="Page 1" id="Page-1">
    <mxGraphModel dx="418" dy="499" grid="1" gridSize="10" guides="1" tooltips="1" connect="1" arrows="1" fold="1" page="1" pageScale="1" pageWidth="827" pageHeight="1169" math="1" shadow="0">
      <root>
        <mxCell id="0" />
        <mxCell id="1" parent="0" />
        <mxCell id="a2qW_MYBUop-qcKPNAVE-28" value="&lt;div align=&quot;right&quot;&gt;V&lt;sub&gt;S&lt;/sub&gt;&lt;/div&gt;" style="text;html=1;whiteSpace=wrap;strokeColor=none;fillColor=none;align=right;verticalAlign=middle;rounded=0;fontFamily=Helvetica;fontSize=11;fontColor=default;labelBackgroundColor=default;convertToSvg=1;" vertex="1" parent="1">
          <mxGeometry x="100" y="265" width="27" height="30" as="geometry" />
        </mxCell>
        <mxCell id="a2qW_MYBUop-qcKPNAVE-30" value="I" style="text;html=1;whiteSpace=wrap;strokeColor=none;fillColor=none;align=center;verticalAlign=middle;rounded=0;fontFamily=Helvetica;fontSize=11;fontColor=default;labelBackgroundColor=default;convertToSvg=1;" vertex="1" parent="1">
          <mxGeometry x="270" y="330" width="30" height="20" as="geometry" />
        </mxCell>
        <UserObject label="" tags="Ã‰lectrique Lien" id="22">
          <mxCell parent="1" vertex="1" visible="0">
            <mxGeometry as="geometry" />
          </mxCell>
        </UserObject>
        <mxCell id="a2qW_MYBUop-qcKPNAVE-22" value="" style="pointerEvents=1;verticalLabelPosition=bottom;shadow=0;dashed=0;align=center;html=1;verticalAlign=top;shape=mxgraph.electrical.signal_sources.source;aspect=fixed;points=[[0.5,0,0],[1,0.5,0],[0.5,1,0],[0,0.5,0]];elSignalType=ac;" vertex="1" parent="1">
          <mxGeometry x="130" y="250" width="60" height="60" as="geometry" />
        </mxCell>
        <mxCell id="a2qW_MYBUop-qcKPNAVE-23" value="R" style="pointerEvents=1;verticalLabelPosition=bottom;shadow=0;dashed=0;align=center;html=1;verticalAlign=top;shape=mxgraph.electrical.resistors.resistor_2;convertToSvg=1;" vertex="1" parent="1">
          <mxGeometry x="230" y="190" width="100" height="20" as="geometry" />
        </mxCell>
        <mxCell id="a2qW_MYBUop-qcKPNAVE-24" value="L" style="pointerEvents=1;verticalLabelPosition=bottom;shadow=0;dashed=0;align=left;html=1;verticalAlign=middle;shape=mxgraph.electrical.inductors.inductor_3;rotation=90;horizontal=0;convertToSvg=1;" vertex="1" parent="1">
          <mxGeometry x="354" y="276" width="100" height="8" as="geometry" />
        </mxCell>
        <mxCell id="a2qW_MYBUop-qcKPNAVE-25" style="edgeStyle=orthogonalEdgeStyle;rounded=0;orthogonalLoop=1;jettySize=auto;html=1;exitX=0;exitY=0.5;exitDx=0;exitDy=0;exitPerimeter=0;entryX=0.5;entryY=0;entryDx=0;entryDy=0;entryPerimeter=0;endArrow=none;endFill=0;" edge="1" parent="1" source="a2qW_MYBUop-qcKPNAVE-23" target="a2qW_MYBUop-qcKPNAVE-22">
          <mxGeometry relative="1" as="geometry" />
        </mxCell>
        <mxCell id="a2qW_MYBUop-qcKPNAVE-26" style="edgeStyle=orthogonalEdgeStyle;shape=connector;rounded=0;orthogonalLoop=1;jettySize=auto;html=1;exitX=1;exitY=0.5;exitDx=0;exitDy=0;exitPerimeter=0;entryX=0;entryY=1;entryDx=0;entryDy=0;entryPerimeter=0;strokeColor=default;align=center;verticalAlign=middle;fontFamily=Helvetica;fontSize=11;fontColor=default;labelBackgroundColor=default;endArrow=none;endFill=0;" edge="1" parent="1" source="a2qW_MYBUop-qcKPNAVE-23" target="a2qW_MYBUop-qcKPNAVE-24">
          <mxGeometry relative="1" as="geometry" />
        </mxCell>
        <mxCell id="a2qW_MYBUop-qcKPNAVE-27" style="edgeStyle=orthogonalEdgeStyle;shape=connector;rounded=0;orthogonalLoop=1;jettySize=auto;html=1;exitX=1;exitY=1;exitDx=0;exitDy=0;exitPerimeter=0;entryX=0.5;entryY=1;entryDx=0;entryDy=0;entryPerimeter=0;strokeColor=default;align=center;verticalAlign=middle;fontFamily=Helvetica;fontSize=11;fontColor=default;labelBackgroundColor=default;endArrow=none;endFill=0;" edge="1" parent="1" source="a2qW_MYBUop-qcKPNAVE-24" target="a2qW_MYBUop-qcKPNAVE-22">
          <mxGeometry relative="1" as="geometry">
            <Array as="points">
              <mxPoint x="400" y="360" />
              <mxPoint x="160" y="360" />
            </Array>
          </mxGeometry>
        </mxCell>
        <mxCell id="a2qW_MYBUop-qcKPNAVE-29" value="" style="edgeStyle=none;orthogonalLoop=1;jettySize=auto;html=1;rounded=0;strokeColor=default;align=center;verticalAlign=middle;fontFamily=Helvetica;fontSize=11;fontColor=default;labelBackgroundColor=default;endArrow=none;endFill=0;startArrow=classic;startFill=1;" edge="1" parent="1">
          <mxGeometry width="80" relative="1" as="geometry">
            <mxPoint x="260" y="350" as="sourcePoint" />
            <mxPoint x="300" y="350" as="targetPoint" />
            <Array as="points" />
          </mxGeometry>
        </mxCell>
      </root>
    </mxGraphModel>
  </diagram>
</mxfile>
